<mxfile host="Electron" agent="Mozilla/5.0 (Windows NT 10.0; Win64; x64) AppleWebKit/537.36 (KHTML, like Gecko) draw.io/28.0.4 Chrome/138.0.7204.97 Electron/37.2.1 Safari/537.36" version="28.0.4">
  <diagram name="Page-1" id="WlHuQ_RKHq7Yznqo7h_7">
    <mxGraphModel dx="1188" dy="808" grid="1" gridSize="10" guides="1" tooltips="1" connect="1" arrows="1" fold="1" page="1" pageScale="1" pageWidth="827" pageHeight="1169" math="0" shadow="0">
      <root>
        <mxCell id="0" />
        <mxCell id="1" parent="0" />
        <mxCell id="NdLyIipKTZL6H0zGAYYs-1" value="&lt;span style=&quot;font-size: 10px;&quot;&gt;Generate&amp;nbsp;&amp;nbsp;&lt;/span&gt;&lt;span style=&quot;font-size: 10px;&quot;&gt;AI_Categorisation_cleaned.json&lt;/span&gt;" style="shape=trapezoid;perimeter=trapezoidPerimeter;whiteSpace=wrap;html=1;fixedSize=1;fillColor=#fff2cc;strokeColor=#d6b656;" parent="1" vertex="1">
          <mxGeometry x="320" y="730" width="267.5" height="20" as="geometry" />
        </mxCell>
        <mxCell id="NdLyIipKTZL6H0zGAYYs-27" style="edgeStyle=orthogonalEdgeStyle;rounded=0;orthogonalLoop=1;jettySize=auto;html=1;exitX=0.5;exitY=1;exitDx=0;exitDy=0;entryX=0.5;entryY=0;entryDx=0;entryDy=0;" parent="1" source="NdLyIipKTZL6H0zGAYYs-2" target="NdLyIipKTZL6H0zGAYYs-4" edge="1">
          <mxGeometry relative="1" as="geometry" />
        </mxCell>
        <mxCell id="varHAquxJkbPKC8EKj0b-4" style="edgeStyle=orthogonalEdgeStyle;rounded=0;orthogonalLoop=1;jettySize=auto;html=1;exitX=0;exitY=0.5;exitDx=0;exitDy=0;entryX=0;entryY=0.5;entryDx=0;entryDy=0;" edge="1" parent="1" source="NdLyIipKTZL6H0zGAYYs-2" target="NdLyIipKTZL6H0zGAYYs-23">
          <mxGeometry relative="1" as="geometry">
            <Array as="points">
              <mxPoint x="290" y="241" />
              <mxPoint x="290" y="692" />
            </Array>
          </mxGeometry>
        </mxCell>
        <mxCell id="NdLyIipKTZL6H0zGAYYs-2" value="Ct&amp;gt;= CtMax OR&lt;div&gt;&amp;nbsp;Coverage &amp;gt;=100%&lt;/div&gt;" style="rhombus;whiteSpace=wrap;html=1;fontSize=10;" parent="1" vertex="1">
          <mxGeometry x="376.75" y="212" width="154" height="58" as="geometry" />
        </mxCell>
        <mxCell id="NdLyIipKTZL6H0zGAYYs-20" style="edgeStyle=orthogonalEdgeStyle;rounded=0;orthogonalLoop=1;jettySize=auto;html=1;exitX=0.5;exitY=1;exitDx=0;exitDy=0;entryX=0.5;entryY=0;entryDx=0;entryDy=0;" parent="1" source="NdLyIipKTZL6H0zGAYYs-3" target="NdLyIipKTZL6H0zGAYYs-19" edge="1">
          <mxGeometry relative="1" as="geometry" />
        </mxCell>
        <mxCell id="NdLyIipKTZL6H0zGAYYs-3" value="transactions.json" style="rounded=1;whiteSpace=wrap;html=1;fontSize=10;fillColor=#d5e8d4;strokeColor=#82b366;" parent="1" vertex="1">
          <mxGeometry x="393.75" y="141" width="120" height="30" as="geometry" />
        </mxCell>
        <mxCell id="NdLyIipKTZL6H0zGAYYs-32" style="edgeStyle=orthogonalEdgeStyle;rounded=0;orthogonalLoop=1;jettySize=auto;html=1;exitX=0.5;exitY=1;exitDx=0;exitDy=0;entryX=0.5;entryY=0;entryDx=0;entryDy=0;" parent="1" target="NdLyIipKTZL6H0zGAYYs-31" edge="1">
          <mxGeometry relative="1" as="geometry">
            <mxPoint x="453.75" y="320" as="sourcePoint" />
          </mxGeometry>
        </mxCell>
        <mxCell id="NdLyIipKTZL6H0zGAYYs-4" value="GenCat.py" style="rounded=0;whiteSpace=wrap;html=1;fontSize=10;fillColor=#f5f5f5;fontColor=#333333;strokeColor=#666666;" parent="1" vertex="1">
          <mxGeometry x="398.75" y="294" width="110" height="26" as="geometry" />
        </mxCell>
        <mxCell id="NdLyIipKTZL6H0zGAYYs-13" style="edgeStyle=orthogonalEdgeStyle;rounded=0;orthogonalLoop=1;jettySize=auto;html=1;exitX=0.5;exitY=1;exitDx=0;exitDy=0;entryX=0.5;entryY=0;entryDx=0;entryDy=0;fontSize=10;" parent="1" source="NdLyIipKTZL6H0zGAYYs-5" target="NdLyIipKTZL6H0zGAYYs-12" edge="1">
          <mxGeometry relative="1" as="geometry" />
        </mxCell>
        <mxCell id="NdLyIipKTZL6H0zGAYYs-5" value="clean_ai_categorisation.py" style="rounded=0;whiteSpace=wrap;html=1;fontSize=10;fillColor=#f5f5f5;fontColor=#333333;strokeColor=#666666;" parent="1" vertex="1">
          <mxGeometry x="373.75" y="386" width="160" height="22" as="geometry" />
        </mxCell>
        <mxCell id="NdLyIipKTZL6H0zGAYYs-18" style="edgeStyle=orthogonalEdgeStyle;rounded=0;orthogonalLoop=1;jettySize=auto;html=1;exitX=0.5;exitY=1;exitDx=0;exitDy=0;entryX=0.5;entryY=0;entryDx=0;entryDy=0;fontSize=10;" parent="1" source="NdLyIipKTZL6H0zGAYYs-6" target="NdLyIipKTZL6H0zGAYYs-3" edge="1">
          <mxGeometry relative="1" as="geometry" />
        </mxCell>
        <mxCell id="NdLyIipKTZL6H0zGAYYs-6" value="Generate empty AI_Categorisation_cleaned.json" style="rounded=0;whiteSpace=wrap;html=1;fontSize=10;fillColor=#fff2cc;strokeColor=#d6b656;" parent="1" vertex="1">
          <mxGeometry x="363.75" y="70" width="180" height="40" as="geometry" />
        </mxCell>
        <mxCell id="NdLyIipKTZL6H0zGAYYs-11" style="edgeStyle=orthogonalEdgeStyle;rounded=0;orthogonalLoop=1;jettySize=auto;html=1;exitX=0.5;exitY=1;exitDx=0;exitDy=0;entryX=0.5;entryY=0;entryDx=0;entryDy=0;fontSize=10;" parent="1" source="NdLyIipKTZL6H0zGAYYs-7" target="NdLyIipKTZL6H0zGAYYs-10" edge="1">
          <mxGeometry relative="1" as="geometry" />
        </mxCell>
        <mxCell id="NdLyIipKTZL6H0zGAYYs-7" value="gen_cat_eval.py" style="rounded=0;whiteSpace=wrap;html=1;fontSize=10;fillColor=#f5f5f5;fontColor=#333333;strokeColor=#666666;" parent="1" vertex="1">
          <mxGeometry x="388.75" y="476" width="130" height="18" as="geometry" />
        </mxCell>
        <mxCell id="NdLyIipKTZL6H0zGAYYs-34" style="edgeStyle=orthogonalEdgeStyle;rounded=0;orthogonalLoop=1;jettySize=auto;html=1;exitX=0.5;exitY=1;exitDx=0;exitDy=0;entryX=0.5;entryY=0;entryDx=0;entryDy=0;" parent="1" source="NdLyIipKTZL6H0zGAYYs-9" target="NdLyIipKTZL6H0zGAYYs-23" edge="1">
          <mxGeometry relative="1" as="geometry" />
        </mxCell>
        <mxCell id="NdLyIipKTZL6H0zGAYYs-9" value="AI_Categorisation_cleaned.json = AI_Categorisation_cleaned.json&amp;nbsp; + AI_Categorisation_cleaned.json (Ct)" style="whiteSpace=wrap;html=1;fontSize=10;" parent="1" vertex="1">
          <mxGeometry x="343.75" y="602" width="220" height="40" as="geometry" />
        </mxCell>
        <mxCell id="NdLyIipKTZL6H0zGAYYs-14" style="edgeStyle=orthogonalEdgeStyle;rounded=0;orthogonalLoop=1;jettySize=auto;html=1;exitX=0.5;exitY=1;exitDx=0;exitDy=0;fontSize=10;" parent="1" source="NdLyIipKTZL6H0zGAYYs-10" target="NdLyIipKTZL6H0zGAYYs-9" edge="1">
          <mxGeometry relative="1" as="geometry" />
        </mxCell>
        <mxCell id="NdLyIipKTZL6H0zGAYYs-10" value="Generate&amp;nbsp;uncategorized_transactions.json (Ct)&lt;div&gt;Generate inconsistent_categorizations.json(Ct)&lt;/div&gt;&lt;div&gt;&lt;span style=&quot;background-color: transparent; color: light-dark(rgb(0, 0, 0), rgb(255, 255, 255));&quot;&gt;Generate&lt;/span&gt;&lt;span style=&quot;background-color: transparent; color: light-dark(rgb(0, 0, 0), rgb(255, 255, 255));&quot;&gt;&amp;nbsp;&lt;/span&gt;Coverage(Ct)&lt;/div&gt;" style="whiteSpace=wrap;html=1;fontSize=10;fillColor=#d5e8d4;strokeColor=#82b366;" parent="1" vertex="1">
          <mxGeometry x="338.75" y="522" width="230" height="40" as="geometry" />
        </mxCell>
        <mxCell id="NdLyIipKTZL6H0zGAYYs-30" style="edgeStyle=orthogonalEdgeStyle;rounded=0;orthogonalLoop=1;jettySize=auto;html=1;exitX=0.5;exitY=1;exitDx=0;exitDy=0;entryX=0.5;entryY=0;entryDx=0;entryDy=0;" parent="1" source="NdLyIipKTZL6H0zGAYYs-12" target="NdLyIipKTZL6H0zGAYYs-7" edge="1">
          <mxGeometry relative="1" as="geometry" />
        </mxCell>
        <mxCell id="NdLyIipKTZL6H0zGAYYs-12" value="Generate AI_Categorisation_cleaned.json (Ct)" style="whiteSpace=wrap;html=1;fontSize=10;fillColor=#d5e8d4;strokeColor=#82b366;" parent="1" vertex="1">
          <mxGeometry x="343.75" y="428" width="220" height="30" as="geometry" />
        </mxCell>
        <mxCell id="NdLyIipKTZL6H0zGAYYs-36" style="edgeStyle=orthogonalEdgeStyle;rounded=0;orthogonalLoop=1;jettySize=auto;html=1;exitX=0.5;exitY=0;exitDx=0;exitDy=0;entryX=1;entryY=0.5;entryDx=0;entryDy=0;" parent="1" source="NdLyIipKTZL6H0zGAYYs-15" target="NdLyIipKTZL6H0zGAYYs-19" edge="1">
          <mxGeometry relative="1" as="geometry" />
        </mxCell>
        <mxCell id="NdLyIipKTZL6H0zGAYYs-15" value="&lt;span style=&quot;font-size: 12px;&quot;&gt;transactions.json&lt;/span&gt;&amp;nbsp;= uncategorized_transactions.json (Ct)" style="whiteSpace=wrap;html=1;fontSize=10;" parent="1" vertex="1">
          <mxGeometry x="587.5" y="415" width="190" height="40" as="geometry" />
        </mxCell>
        <mxCell id="NdLyIipKTZL6H0zGAYYs-21" style="edgeStyle=orthogonalEdgeStyle;rounded=0;orthogonalLoop=1;jettySize=auto;html=1;exitX=0.5;exitY=1;exitDx=0;exitDy=0;entryX=0.5;entryY=0;entryDx=0;entryDy=0;" parent="1" source="NdLyIipKTZL6H0zGAYYs-19" target="NdLyIipKTZL6H0zGAYYs-2" edge="1">
          <mxGeometry relative="1" as="geometry" />
        </mxCell>
        <mxCell id="NdLyIipKTZL6H0zGAYYs-19" value="" style="ellipse;whiteSpace=wrap;html=1;aspect=fixed;" parent="1" vertex="1">
          <mxGeometry x="446.125" y="182" width="15.25" height="15.25" as="geometry" />
        </mxCell>
        <mxCell id="varHAquxJkbPKC8EKj0b-2" style="edgeStyle=orthogonalEdgeStyle;rounded=0;orthogonalLoop=1;jettySize=auto;html=1;entryX=0.5;entryY=1;entryDx=0;entryDy=0;" edge="1" parent="1" target="NdLyIipKTZL6H0zGAYYs-15">
          <mxGeometry relative="1" as="geometry">
            <mxPoint x="454" y="660" as="sourcePoint" />
          </mxGeometry>
        </mxCell>
        <mxCell id="varHAquxJkbPKC8EKj0b-3" style="edgeStyle=orthogonalEdgeStyle;rounded=0;orthogonalLoop=1;jettySize=auto;html=1;exitX=0.5;exitY=1;exitDx=0;exitDy=0;entryX=0.5;entryY=0;entryDx=0;entryDy=0;" edge="1" parent="1" source="NdLyIipKTZL6H0zGAYYs-23" target="NdLyIipKTZL6H0zGAYYs-1">
          <mxGeometry relative="1" as="geometry" />
        </mxCell>
        <mxCell id="NdLyIipKTZL6H0zGAYYs-23" value="" style="ellipse;whiteSpace=wrap;html=1;aspect=fixed;" parent="1" vertex="1">
          <mxGeometry x="443.75" y="682" width="20" height="20" as="geometry" />
        </mxCell>
        <mxCell id="NdLyIipKTZL6H0zGAYYs-33" style="edgeStyle=orthogonalEdgeStyle;rounded=0;orthogonalLoop=1;jettySize=auto;html=1;exitX=0.5;exitY=1;exitDx=0;exitDy=0;entryX=0.5;entryY=0;entryDx=0;entryDy=0;" parent="1" source="NdLyIipKTZL6H0zGAYYs-31" target="NdLyIipKTZL6H0zGAYYs-5" edge="1">
          <mxGeometry relative="1" as="geometry" />
        </mxCell>
        <mxCell id="NdLyIipKTZL6H0zGAYYs-31" value="Generate AI_Categorisation.json (Ct)" style="whiteSpace=wrap;html=1;fontSize=10;fillColor=#d5e8d4;strokeColor=#82b366;" parent="1" vertex="1">
          <mxGeometry x="364.685" y="336" width="178.13" height="24" as="geometry" />
        </mxCell>
        <mxCell id="varHAquxJkbPKC8EKj0b-6" value="yes" style="text;html=1;align=center;verticalAlign=middle;whiteSpace=wrap;rounded=0;" vertex="1" parent="1">
          <mxGeometry x="300" y="212" width="60" height="30" as="geometry" />
        </mxCell>
        <mxCell id="varHAquxJkbPKC8EKj0b-7" value="no" style="text;html=1;align=center;verticalAlign=middle;resizable=0;points=[];autosize=1;strokeColor=none;fillColor=none;" vertex="1" parent="1">
          <mxGeometry x="453" y="267" width="40" height="30" as="geometry" />
        </mxCell>
      </root>
    </mxGraphModel>
  </diagram>
</mxfile>
